<?xml version="1.0" encoding="iso-8859-1"?>
<!-- Generator: Adobe Illustrator 16.0.0, SVG Export Plug-In . SVG Version: 6.00 Build 0)  -->
<!DOCTYPE svg PUBLIC "-//W3C//DTD SVG 1.1//EN" "http://www.w3.org/Graphics/SVG/1.1/DTD/svg11.dtd">
<svg version="1.1" id="Capa_1" xmlns="http://www.w3.org/2000/svg" xmlns:xlink="http://www.w3.org/1999/xlink" x="0px" y="0px"
	 width="821.799px" height="821.8px" viewBox="0 0 821.799 821.8" style="enable-background:new 0 0 821.799 821.8;"
	 xml:space="preserve">
<g>
	<path d="M424.75,440.8c0.1-20.899,17.199-38,38.399-38c21,0,38.101,17.101,38,38c0,4.5-0.8,8.8-2.2,12.8
		c16.2-4.699,32.601-8.199,49.301-10.6V283.8L512.85,0H36.35l-36,283.8V568h46v65h80v-65h195.9l24-24c28.8-28.8,61.8-52.2,98.3-69.6
		C432.85,467.8,424.85,455.2,424.75,440.8z M162.35,30h224c22,0,22,33,0,33h-224c-6,0-10.3-2.4-13.1-6
		C141.95,47.5,146.35,30,162.35,30z M86.05,479.2c-21-0.101-38.1-17.2-38-38.4c0-20.899,17.1-38,38-38c21.2,0,38.3,17.101,38.4,38
		C124.25,462,107.25,479.1,86.05,479.2z M49.45,284l23.5-187h402.9l23.8,187H49.45z"/>
	<path d="M502.35,631.7c-0.7,0.399-1.4,0.8-2.1,1.3c-13.5,8.3-26.101,18.3-37.4,30.1l61.1,59.101c19.7-20.4,46.2-31.7,74.601-31.7
		c27.7,0,53.8,10.8,73.399,30.4L732.05,660.8c-35.7-35.7-83.101-55.3-133.5-55.3C564.05,605.5,531.15,614.6,502.35,631.7z"/>
	<path d="M548.35,483.5c-25.1,4-49.5,11-73.1,20.9c-35.9,15.199-68.2,36.6-96.301,63.6c-1.5,1.4-2.899,2.8-4.399,4.3l60.1,60.101
		c19.9-19.9,42.8-35.7,67.7-47.101c29.8-13.6,62.5-20.8,96.2-20.8c61.5,0,119.399,23.8,163.1,67.1l59.8-60.399
		C761.75,512,682.55,479.5,598.55,479.5C581.65,479.5,564.85,480.8,548.35,483.5z"/>
	<circle cx="598.55" cy="775.8" r="46"/>
</g>
<g>
</g>
<g>
</g>
<g>
</g>
<g>
</g>
<g>
</g>
<g>
</g>
<g>
</g>
<g>
</g>
<g>
</g>
<g>
</g>
<g>
</g>
<g>
</g>
<g>
</g>
<g>
</g>
<g>
</g>
</svg>
