<?xml version="1.0" encoding="iso-8859-1"?>
<!-- Generator: Adobe Illustrator 16.0.0, SVG Export Plug-In . SVG Version: 6.00 Build 0)  -->
<!DOCTYPE svg PUBLIC "-//W3C//DTD SVG 1.1//EN" "http://www.w3.org/Graphics/SVG/1.1/DTD/svg11.dtd">
<svg version="1.1" id="Capa_1" xmlns="http://www.w3.org/2000/svg" xmlns:xlink="http://www.w3.org/1999/xlink" x="0px" y="0px"
	 width="883.5px" height="883.5px" viewBox="0 0 883.5 883.5" style="enable-background:new 0 0 883.5 883.5;" xml:space="preserve"
	>
<g>
	<g>
		<path d="M312.85,883.5h118c97.7,0,179.9-66.7,203.8-157c0,0,4.7,0,7,0c77.101,0,140-62.7,140-139.9
			c0-77.1-62.8-139.899-139.8-139.899v-51.2h-540v276.9C101.85,788.8,196.55,883.5,312.85,883.5z M641.85,503.5
			c47,0,83.5,37.4,83.5,83.5s-36.5,83.5-83.5,83.5V503.5z"/>
		<g>
			<path d="M326.55,296.3c0,25.1,20.399,45.5,45.5,45.5c25.1,0,45.5-20.4,45.5-45.5c0-25.1-20.4-45.5-45.5-45.5
				C346.95,250.8,326.55,271.2,326.55,296.3z"/>
			<path d="M505.55,181.3c-35.7-35.7-83.101-55.3-133.5-55.3c-51.601,0-99.9,20.5-135.8,57.6l61.1,59.1
				c19.7-20.4,46.2-31.7,74.6-31.7c27.7,0,53.801,10.8,73.4,30.4L505.55,181.3z"/>
			<path d="M372.05,85c61.5,0,119.399,23.8,163.1,67.1l59.8-60.4C535.25,32.5,456.05,0,372.05,0c-42.7,0-84.2,8.4-123.3,24.9
				c-37.7,16-71.601,38.8-100.7,67.9l60.1,60.1C251.95,109.1,310.15,85,372.05,85z"/>
		</g>
	</g>
</g>
<g>
</g>
<g>
</g>
<g>
</g>
<g>
</g>
<g>
</g>
<g>
</g>
<g>
</g>
<g>
</g>
<g>
</g>
<g>
</g>
<g>
</g>
<g>
</g>
<g>
</g>
<g>
</g>
<g>
</g>
</svg>
