<?xml version="1.0" encoding="iso-8859-1"?>
<!-- Generator: Adobe Illustrator 16.0.0, SVG Export Plug-In . SVG Version: 6.00 Build 0)  -->
<!DOCTYPE svg PUBLIC "-//W3C//DTD SVG 1.1//EN" "http://www.w3.org/Graphics/SVG/1.1/DTD/svg11.dtd">
<svg version="1.1" id="Capa_1" xmlns="http://www.w3.org/2000/svg" xmlns:xlink="http://www.w3.org/1999/xlink" x="0px" y="0px"
	 width="915.4px" height="915.4px" viewBox="0 0 915.4 915.4" style="enable-background:new 0 0 915.4 915.4;" xml:space="preserve"
	>
<g>
	<path d="M472,612.847l-53.1-53.4c-4-4.1-4-10.6,0-14.6l21-21c32.699-32.7,70.899-58.5,113.399-76.4
		c23.2-9.8,47.101-17.1,71.601-21.8c9.5-1.8,11.6-14.399,3.199-19.2l-147.8-83.899c-3.2-1.8-5.2-5.3-5.2-9v-188.6
		c0-36.5-29.399-90.1-65.899-90.1l0,0c-36.5,0-66.101,53.6-66.101,90.1v188.6c0,3.7-2,7.2-5.199,9L5.2,511.747
		c-3.2,1.8-5.2,5.3-5.2,9v98.899c0,6.9,6.6,11.9,13.2,10l316.6-91.8c6.601-1.9,13.2,3,13.2,10v183c0,3.3-1.6,6.4-4.2,8.4
		l-108.5,79.6c-2.7,2-4.2,5.1-4.2,8.4v42.899c0,6.9,6.6,11.8,13.2,10l167.5-47.3c1.8-0.5,3.8-0.5,5.601,0l167.5,47.3
		c6.6,1.9,13.199-3.1,13.199-10v-42.899c0-3.301-1.6-6.4-4.3-8.4l-109.5-79.6c-2.7-1.9-4.3-5.101-4.3-8.4v-110.7
		C475,617.347,473.9,614.747,472,612.847z"/>
	<path d="M692.2,709.646c-0.101,0-0.101,0-0.2,0h-0.1c-25.4,0-45.9,20.601-45.9,46c0,25.4,20.6,46,46,46c0.1,0,0.1,0,0.1,0
		c0.101,0,0.101,0,0.2,0c25.4,0,46-20.6,46-46C738.2,730.247,717.6,709.646,692.2,709.646z"/>
	<path d="M724.2,460.847c-10.5-1-21.2-1.5-31.9-1.5c-0.1,0-0.2,0-0.2,0H692c-10.7,0-21.3,0.5-31.8,1.5l0,0
		c-72,7-138.9,38.6-191,90.2l59.8,60.399c11.3-11.199,23.4-21,36.4-29.5c37-24.5,81-37.6,126.6-37.6c0.1,0,0.2,0,0.2,0
		c0.1,0,0.2,0,0.3,0c45.6,0,89.7,13.1,126.7,37.6c13,8.5,25.1,18.4,36.399,29.5l59.801-60.399
		C863.1,499.446,796.2,467.847,724.2,460.847L724.2,460.847z"/>
	<path d="M692.2,585.347c-0.101,0-0.101,0-0.2,0h-0.1c-46.801,0-90.9,16.9-125.5,47.8l-8.101,7.3l60.2,60.2
		c0.1,0.101,0.2,0.101,0.2,0c19.6-19.5,45.6-30.3,73.2-30.3c0.1,0,0.1,0,0.1,0c0.1,0,0.1,0,0.2,0c27.7,0,53.7,10.8,73.3,30.3
		c0.1,0.101,0.2,0.101,0.2,0l60.2-60.2l-8.101-7.3C783.2,602.247,739,585.347,692.2,585.347z"/>
</g>
<g>
</g>
<g>
</g>
<g>
</g>
<g>
</g>
<g>
</g>
<g>
</g>
<g>
</g>
<g>
</g>
<g>
</g>
<g>
</g>
<g>
</g>
<g>
</g>
<g>
</g>
<g>
</g>
<g>
</g>
</svg>
