<?xml version="1.0" encoding="iso-8859-1"?>
<!-- Generator: Adobe Illustrator 16.0.0, SVG Export Plug-In . SVG Version: 6.00 Build 0)  -->
<!DOCTYPE svg PUBLIC "-//W3C//DTD SVG 1.1//EN" "http://www.w3.org/Graphics/SVG/1.1/DTD/svg11.dtd">
<svg version="1.1" id="Capa_1" xmlns="http://www.w3.org/2000/svg" xmlns:xlink="http://www.w3.org/1999/xlink" x="0px" y="0px"
	 width="894.3px" height="894.3px" viewBox="0 0 894.3 894.3" style="enable-background:new 0 0 894.3 894.3;" xml:space="preserve"
	>
<g>
	<circle cx="385.6" cy="671.75" r="79.801"/>
	<path d="M500.3,447.149h39v-43.8c-9-4.8-18.2-9.3-27.7-13.3c-39.899-16.9-82.3-25.5-126-25.5c-44.6,0-87.899,8.9-128.6,26.6
		c-39.3,17-74.3,41.3-104.1,72.2l100.7,97.301c34.9-36.1,81.9-56,132.2-56c42.1,0,81.5,14.1,114.5,40V447.149z"/>
	<path d="M385.6,282.75c57.2,0,112.601,11.8,163.4,34.2c16.7-48.1,53.5-86.9,100.3-106.3c-17-9.4-34.5-17.9-52.6-25.5
		c-66.9-28.1-138-42.4-211.101-42.4c-73.6,0-145,14.4-212.3,42.9c-65,27.5-123.3,66.8-173.3,116.9l99,99
		C175.5,324.949,277.3,282.75,385.6,282.75z"/>
	<rect x="540.3" y="487.15" width="354" height="248"/>
	<path d="M738.3,239.049c0.1,0,0.1-0.1,0.2-0.1c-7.2-1.2-14.7-1.8-22.2-1.8l0,0l0,0c-7.5,0-15,0.6-22.2,1.8
		c0.101,0,0.101,0.1,0.2,0.1c-51.9,8.7-94,46.5-109.1,96l0,0c-3.801,12.7-5.9,26.1-5.9,40v53.8v18.3h85v-72.1
		c0-28.9,23.2-52.5,52-53c28.8,0.5,52,24.1,52,53v9.1h85v-9.1c0-13.9-2.1-27.3-5.9-40l0,0
		C832.399,285.549,790.2,247.75,738.3,239.049z"/>
</g>
<g>
</g>
<g>
</g>
<g>
</g>
<g>
</g>
<g>
</g>
<g>
</g>
<g>
</g>
<g>
</g>
<g>
</g>
<g>
</g>
<g>
</g>
<g>
</g>
<g>
</g>
<g>
</g>
<g>
</g>
</svg>
