<?xml version="1.0" encoding="iso-8859-1"?>
<!-- Generator: Adobe Illustrator 16.0.0, SVG Export Plug-In . SVG Version: 6.00 Build 0)  -->
<!DOCTYPE svg PUBLIC "-//W3C//DTD SVG 1.1//EN" "http://www.w3.org/Graphics/SVG/1.1/DTD/svg11.dtd">
<svg version="1.1" id="Capa_1" xmlns="http://www.w3.org/2000/svg" xmlns:xlink="http://www.w3.org/1999/xlink" x="0px" y="0px"
	 width="894.3px" height="894.3px" viewBox="0 0 894.3 894.3" style="enable-background:new 0 0 894.3 894.3;" xml:space="preserve"
	>
<g>
	<g>
		<circle cx="385.6" cy="671.75" r="79.801"/>
		<path d="M500.3,487.25v-40.1h39v-43.8c-9-4.8-18.2-9.3-27.7-13.3c-39.899-16.9-82.3-25.5-126-25.5c-44.6,0-87.899,8.9-128.6,26.6
			c-39.3,17-74.3,41.3-104.1,72.2l100.7,97.301c34.9-36.1,81.9-56,132.2-56c42.1,0,81.5,14.1,114.5,40V487.25z"/>
		<path d="M385.6,142.75c-73.6,0-145,14.4-212.3,42.9c-65,27.5-123.3,66.8-173.3,116.9l99,99c76.6-76.6,178.399-118.7,286.7-118.7
			c57.199,0,112.6,11.8,163.399,34.2c16.7-48.1,53.5-86.9,100.3-106.3c-17-9.4-34.5-17.9-52.6-25.5
			C529.8,156.949,458.8,142.75,385.6,142.75z"/>
		<rect x="540.3" y="487.15" width="354" height="248"/>
		<path d="M585.2,335.049L585.2,335.049c-3.801,12.7-5.9,26.1-5.9,40v53.8v18.3h85v-72.1c0-28.9,23.2-52.5,52-53
			c28.8,0.5,52,24.1,52,53v72.1h85v-18.3v-53.8c0-13.9-2.1-27.3-5.9-40l0,0c-15-49.5-57.199-87.3-109.1-96c0.1,0,0.1-0.1,0.2-0.1
			c-7.2-1.2-14.7-1.8-22.2-1.8l0,0l0,0c-7.5,0-15,0.6-22.2,1.8c0.101,0,0.101,0.1,0.2,0.1
			C642.399,247.75,600.2,285.549,585.2,335.049z"/>
	</g>
</g>
<g>
</g>
<g>
</g>
<g>
</g>
<g>
</g>
<g>
</g>
<g>
</g>
<g>
</g>
<g>
</g>
<g>
</g>
<g>
</g>
<g>
</g>
<g>
</g>
<g>
</g>
<g>
</g>
<g>
</g>
</svg>
