<?xml version="1.0" encoding="iso-8859-1"?>
<!-- Generator: Adobe Illustrator 16.0.0, SVG Export Plug-In . SVG Version: 6.00 Build 0)  -->
<!DOCTYPE svg PUBLIC "-//W3C//DTD SVG 1.1//EN" "http://www.w3.org/Graphics/SVG/1.1/DTD/svg11.dtd">
<svg version="1.1" id="Capa_1" xmlns="http://www.w3.org/2000/svg" xmlns:xlink="http://www.w3.org/1999/xlink" x="0px" y="0px"
	 width="926px" height="926px" viewBox="0 0 926 926" style="enable-background:new 0 0 926 926;" xml:space="preserve">
<g>
	<g>
		<polygon points="338.6,753 328,828 598,828 587.4,753 		"/>
		<path d="M581.7,713h344c0.2,0,0.3-0.1,0.3-0.3V98H0.3C0.1,98,0,98.1,0,98.3V713h344.3H581.7z M85,183h756v445H85V183z"/>
		<path d="M463.2,485.3c-25.101,0-45.5,20.4-45.5,45.5c0,25.101,20.399,45.5,45.5,45.5c25.1,0,45.5-20.399,45.5-45.5
			C508.7,505.7,488.3,485.3,463.2,485.3z"/>
		<path d="M327.5,418.1l61.1,59.101c19.7-20.4,46.2-31.7,74.601-31.7c27.7,0,53.8,10.8,73.399,30.4L596.7,415.8
			c-35.7-35.7-83.101-55.3-133.5-55.3C411.6,360.5,363.4,380.9,327.5,418.1z"/>
		<path d="M339.9,259.4c-37.7,16-71.601,38.8-100.7,67.9l60.1,60.101c43.8-43.801,102-67.9,163.9-67.9
			c61.5,0,119.399,23.8,163.1,67.1l59.8-60.399C626.4,267,547.2,234.5,463.2,234.5C420.5,234.5,379,242.9,339.9,259.4z"/>
	</g>
</g>
<g>
</g>
<g>
</g>
<g>
</g>
<g>
</g>
<g>
</g>
<g>
</g>
<g>
</g>
<g>
</g>
<g>
</g>
<g>
</g>
<g>
</g>
<g>
</g>
<g>
</g>
<g>
</g>
<g>
</g>
</svg>
