<?xml version="1.0" encoding="iso-8859-1"?>
<!-- Generator: Adobe Illustrator 16.0.0, SVG Export Plug-In . SVG Version: 6.00 Build 0)  -->
<!DOCTYPE svg PUBLIC "-//W3C//DTD SVG 1.1//EN" "http://www.w3.org/Graphics/SVG/1.1/DTD/svg11.dtd">
<svg version="1.1" id="Capa_1" xmlns="http://www.w3.org/2000/svg" xmlns:xlink="http://www.w3.org/1999/xlink" x="0px" y="0px"
	 width="899.5px" height="899.5px" viewBox="0 0 899.5 899.5" style="enable-background:new 0 0 899.5 899.5;" xml:space="preserve"
	>
<g>
	<circle cx="385.5" cy="665.9" r="79.801"/>
	<path d="M456.601,513c2.8-49.6,23.3-94.5,55.199-128.6c-0.1-0.1-0.3-0.1-0.399-0.2c-39.9-16.9-82.3-25.5-126-25.5
		c-44.601,0-87.9,8.9-128.6,26.6c-39.3,17-74.3,41.3-104.1,72.2l100.7,97.301c34.899-36.1,81.8-56,132-56
		C410.3,498.701,434.4,503.6,456.601,513z"/>
	<path d="M590.2,332.2c22.3-8.3,46.5-12.9,71.6-12.9c24.9,0,48.801,4.5,70.9,12.6l36.7-37c-50-49.5-108.101-88.4-172.7-115.6
		c-66.9-28.1-138-42.4-211.1-42.4c-73.601,0-145,14.4-212.3,42.9C108.3,207.3,50,246.6,0,296.7l99,99
		C175.6,319.1,277.4,277,385.7,277C458.601,276.9,528.7,296.1,590.2,332.2z"/>
	<path d="M827.3,524.801c0-77.8-54-143.201-126.399-160.8c-12.5-3-25.601-4.7-39.101-4.7c-9.6,0-19,0.8-28.1,2.4
		c-32.2,5.5-61.2,20.4-84.2,41.7c-32.7,30.301-53.2,73.5-53.2,121.5c0,3.801,0.101,7.699,0.4,11.4c5.9,85.9,77.7,154.1,165.1,154.1
		c30.2,0,58.601-8.199,83-22.4l94.601,94.6l60.1-60.1l-94.6-94.6C819.2,583.4,827.3,555,827.3,524.801z M661.8,605.301
		c-44.399,0-80.5-36.1-80.5-80.5s36.101-80.5,80.5-80.5c44.4,0,80.5,36.1,80.5,80.5S706.2,605.301,661.8,605.301z"/>
</g>
<g>
</g>
<g>
</g>
<g>
</g>
<g>
</g>
<g>
</g>
<g>
</g>
<g>
</g>
<g>
</g>
<g>
</g>
<g>
</g>
<g>
</g>
<g>
</g>
<g>
</g>
<g>
</g>
<g>
</g>
</svg>
