<?xml version="1.0" encoding="iso-8859-1"?>
<!-- Generator: Adobe Illustrator 16.0.0, SVG Export Plug-In . SVG Version: 6.00 Build 0)  -->
<!DOCTYPE svg PUBLIC "-//W3C//DTD SVG 1.1//EN" "http://www.w3.org/Graphics/SVG/1.1/DTD/svg11.dtd">
<svg version="1.1" id="Capa_1" xmlns="http://www.w3.org/2000/svg" xmlns:xlink="http://www.w3.org/1999/xlink" x="0px" y="0px"
	 width="860.1px" height="860.1px" viewBox="0 0 860.1 860.1" style="enable-background:new 0 0 860.1 860.1;" xml:space="preserve"
	>
<g>
	<g>
		<path d="M572.6,216.5c15.6,0,31,1,46,3V0.4c0-0.2-0.2-0.4-0.4-0.4H65c-0.2,0-0.4,0.2-0.4,0.4v859.4c0,0.101,0.1,0.3,0.3,0.3h553.7
			V625.4c-13,8.5-29,13.5-46,13.5c-18.3,0-35.1-5.801-49-15.5V722h-364V140h364v79.9C539.8,217.6,556,216.5,572.6,216.5z
			 M341.5,751.7c20.3,0,36.699,16.399,36.699,36.7c0,20.3-16.399,36.699-36.699,36.699c-20.301,0-36.7-16.399-36.7-36.699
			C304.699,768.1,321.199,751.7,341.5,751.7z M413.1,84h-143c-8.6,0-15.5-6.9-15.5-15.5S261.5,53,270.1,53h143
			c8.6,0,15.5,6.9,15.5,15.5S421.699,84,413.1,84z"/>
		<path d="M706,437.8c-24.5-24.5-54.4-41.5-87.4-49.6c-15-3.7-30.2-5.601-46-5.601c-16.9,0-33.2,2.2-49,6.4
			c-32.6,8.7-62.4,26.2-86.5,51.2l61.1,59.1c7.601-7.8,16.101-14.3,25.4-19.3c14.9-8.1,31.5-12.3,49-12.3c16.3,0,32,3.7,46,10.8
			c10,5,19.3,11.5,27.4,19.6L706,437.8z"/>
		<circle cx="572.8" cy="552.8" r="46"/>
		<path d="M572.6,256.5c-16.6,0-32.9,1.3-49,3.8c-25.4,4-50.2,11-74.1,21.1c-37.7,16-71.601,38.8-100.7,67.9l60.1,60.101
			c31.9-31.9,71.601-53.4,114.7-62.7c16-3.4,32.3-5.2,49-5.2c15.7,0,31,1.6,46,4.6c44,8.801,84.6,30.301,117.2,62.5l59.7-60.399
			c-48.601-48.2-109.9-78.7-176.9-88.4C603.6,257.6,588.199,256.5,572.6,256.5z"/>
	</g>
</g>
<g>
</g>
<g>
</g>
<g>
</g>
<g>
</g>
<g>
</g>
<g>
</g>
<g>
</g>
<g>
</g>
<g>
</g>
<g>
</g>
<g>
</g>
<g>
</g>
<g>
</g>
<g>
</g>
<g>
</g>
</svg>
