<?xml version="1.0" encoding="iso-8859-1"?>
<!-- Generator: Adobe Illustrator 16.0.0, SVG Export Plug-In . SVG Version: 6.00 Build 0)  -->
<!DOCTYPE svg PUBLIC "-//W3C//DTD SVG 1.1//EN" "http://www.w3.org/Graphics/SVG/1.1/DTD/svg11.dtd">
<svg version="1.1" id="Capa_1" xmlns="http://www.w3.org/2000/svg" xmlns:xlink="http://www.w3.org/1999/xlink" x="0px" y="0px"
	 width="949px" height="949px" viewBox="0 0 949 949" style="enable-background:new 0 0 949 949;" xml:space="preserve">
<g>
	<g>
		<circle cx="474.7" cy="558.8" r="46"/>
		<path d="M339,445.1l61.1,59.101c19.7-20.4,46.2-31.7,74.601-31.7c27.7,0,53.8,10.8,73.399,30.4L608.2,442.8
			c-35.7-35.7-83.101-55.3-133.5-55.3C423.1,387.5,374.9,407.9,339,445.1z"/>
		<path d="M351.4,284.4c-37.7,16-71.601,38.8-100.7,67.9l60.1,60.101c43.8-43.8,102-67.9,163.9-67.9c61.5,0,119.399,23.8,163.1,67.1
			l59.8-60.399C637.9,292,558.7,259.5,474.7,259.5C432,259.5,390.5,267.9,351.4,284.4z"/>
		<path d="M97.5,949h754V0h-754V949z M474.7,915.8c-18.101,0-32.8-14.7-32.8-32.8s14.699-32.8,32.8-32.8c18.1,0,32.8,14.7,32.8,32.8
			S492.8,915.8,474.7,915.8z M196.5,93h556v724h-556V93z"/>
	</g>
</g>
<g>
</g>
<g>
</g>
<g>
</g>
<g>
</g>
<g>
</g>
<g>
</g>
<g>
</g>
<g>
</g>
<g>
</g>
<g>
</g>
<g>
</g>
<g>
</g>
<g>
</g>
<g>
</g>
<g>
</g>
</svg>
