<?xml version="1.0" encoding="iso-8859-1"?>
<!-- Generator: Adobe Illustrator 16.0.0, SVG Export Plug-In . SVG Version: 6.00 Build 0)  -->
<!DOCTYPE svg PUBLIC "-//W3C//DTD SVG 1.1//EN" "http://www.w3.org/Graphics/SVG/1.1/DTD/svg11.dtd">
<svg version="1.1" id="Capa_1" xmlns="http://www.w3.org/2000/svg" xmlns:xlink="http://www.w3.org/1999/xlink" x="0px" y="0px"
	 width="956px" height="956px" viewBox="0 0 956 956" style="enable-background:new 0 0 956 956;" xml:space="preserve">
<g>
	<path d="M941,102.5H16v615h925V102.5z M857,632.5H101v-445h756V632.5z"/>
	<path d="M0,761.5v92h956v-92H0z M858.2,829.6c-12.101,0-21.9-9.8-21.9-21.899c0-12.101,9.8-21.9,21.9-21.9
		c12.1,0,21.899,9.8,21.899,21.9C880.1,819.7,870.3,829.6,858.2,829.6z"/>
	<circle cx="478.2" cy="536.3" r="46"/>
	<path d="M343.5,422.6l61.1,59.101c19.7-20.4,46.2-31.7,74.601-31.7c27.7,0,53.8,10.8,73.399,30.4L612.7,420.3
		C577,384.6,529.6,365,479.2,365C427.6,365,379.4,385.4,343.5,422.6z"/>
	<path d="M478.2,322c61.5,0,119.399,23.8,163.1,67.1l59.8-60.399C641.4,269.5,562.2,237,478.2,237c-42.7,0-84.2,8.4-123.3,24.9
		c-37.7,16-71.601,38.8-100.7,67.9l60.1,60.101C358.1,346.1,416.3,322,478.2,322z"/>
</g>
<g>
</g>
<g>
</g>
<g>
</g>
<g>
</g>
<g>
</g>
<g>
</g>
<g>
</g>
<g>
</g>
<g>
</g>
<g>
</g>
<g>
</g>
<g>
</g>
<g>
</g>
<g>
</g>
<g>
</g>
</svg>
