<?xml version="1.0" encoding="iso-8859-1"?>
<!-- Generator: Adobe Illustrator 16.0.0, SVG Export Plug-In . SVG Version: 6.00 Build 0)  -->
<!DOCTYPE svg PUBLIC "-//W3C//DTD SVG 1.1//EN" "http://www.w3.org/Graphics/SVG/1.1/DTD/svg11.dtd">
<svg version="1.1" id="Capa_1" xmlns="http://www.w3.org/2000/svg" xmlns:xlink="http://www.w3.org/1999/xlink" x="0px" y="0px"
	 width="698px" height="698px" viewBox="0 0 698 698" style="enable-background:new 0 0 698 698;" xml:space="preserve">
<g>
	<circle cx="385.5" cy="573.55" r="79.8"/>
	<path d="M511.5,291.85c-39.899-16.9-82.3-25.5-126-25.5c-44.6,0-87.899,8.9-128.6,26.6c-39.3,17-74.3,41.3-104.1,72.2l100.7,97.3
		c34.9-36.1,81.8-56,132-56c49,0,95.101,19.1,129.8,53.8l22.7-22.7l-8.899-137.6C523.3,297.049,517.4,294.35,511.5,291.85z"/>
	<path d="M523.2,208.45l-4.8-74.5h166c-27.601-19-56.9-33.9-87.7-46.8c-66.9-28.1-138-42.5-211.1-42.5
		c-73.601,0-145,14.4-212.3,42.8c-65,27.5-123.3,66.8-173.3,116.8l99,99c76.6-76.6,178.4-118.8,286.7-118.8
		C433.2,184.55,479.601,192.75,523.2,208.45z"/>
	<circle cx="630.9" cy="587.15" r="58.2"/>
	<polygon points="583.4,479.95 678.4,479.95 698,175.95 563.8,175.95 	"/>
</g>
<g>
</g>
<g>
</g>
<g>
</g>
<g>
</g>
<g>
</g>
<g>
</g>
<g>
</g>
<g>
</g>
<g>
</g>
<g>
</g>
<g>
</g>
<g>
</g>
<g>
</g>
<g>
</g>
<g>
</g>
</svg>
