<?xml version="1.0" encoding="iso-8859-1"?>
<!-- Generator: Adobe Illustrator 16.0.0, SVG Export Plug-In . SVG Version: 6.00 Build 0)  -->
<!DOCTYPE svg PUBLIC "-//W3C//DTD SVG 1.1//EN" "http://www.w3.org/Graphics/SVG/1.1/DTD/svg11.dtd">
<svg version="1.1" id="Capa_1" xmlns="http://www.w3.org/2000/svg" xmlns:xlink="http://www.w3.org/1999/xlink" x="0px" y="0px"
	 width="748.699px" height="748.699px" viewBox="0 0 748.699 748.699" style="enable-background:new 0 0 748.699 748.699;"
	 xml:space="preserve">
<g>
	<circle cx="370.7" cy="579.15" r="76.2"/>
	<path d="M492.199,307.15c-38.5-16.3-79.398-24.6-121.5-24.6c-43.1,0-84.8,8.6-124.1,25.6c-37.9,16.399-71.7,39.8-100.5,69.6
		l100.7,97.3c32.8-33.899,76.699-52.6,123.899-52.6c46,0,89.201,17.9,121.701,50.4l25.299-25.2c-3-5.3-5.799-10.9-8.299-16.601
		c-6.701-15.6-10.201-33.3-10.201-52.6c0-22.8,4.701-43.5,14-61.7C506.4,313.45,499.4,310.15,492.199,307.15z"/>
	<path d="M370.7,210.65c68.3,0,133.701,17.7,191.701,51v-30.1v-39.6h39.9h71.898H705.5c-39.801-34-84-60.2-132-80.4
		c-64.301-27-132.6-40.8-202.9-40.8c-70.7,0-139.4,13.8-204,41.2c-62.4,26.4-118.5,64.2-166.6,112.3l99,99
		C171.6,250.65,268.1,210.65,370.7,210.65z"/>
	<path d="M663.4,385.049c5.1-4.3,12.6-5.6,20.299-5.6c7.701,0,15.4,1.3,21.5,2.1c18,2.5,36.301,9.5,36.301,9.5v-92.1
		c-12-4.5-29.1-9-39.199-10.5c-9.201-1.4-18.5-2.3-27.801-3.4v-53h-72v59c-20,6.9-35.199,17.801-46.4,32.801
		c-3.199,4.3-6,9-8.299,13.899c0.1,0.101,0.199,0.101,0.299,0.2c-0.1-0.1-0.199-0.1-0.299-0.2c-5.602,12-8.5,25.7-8.5,41.101
		c0,13.8,2.299,26,6.898,36.699c0.4,0.9,0.801,1.801,1.201,2.801c4.4,9.6,9.799,18.3,16.299,26.1c7.102,8.5,14.602,16.1,22.701,22.7
		c8,6.6,15.6,12.6,22.699,18c7.1,5.399,12.9,10.3,17.5,14.8c4.6,4.4,6.9,8.8,6.9,13.1c0,7.601-2.6,12.301-7.9,14.301
		c-5.299,2-10.699,3-16.299,3c-7.9,0-15.9-0.5-24.102-1.5c-8.199-1-15.699-2.301-22.299-3.9c-7.9-1.6-22.4-7.4-29.4-9.7v98.6
		c6,1.601,19.5,6.9,26.4,8.2c5.9,1.3,12.699,2.5,20,3.7c7.4,1.1,14.5,1.9,22.5,2.2v50h72v-53.9c26-7.6,45.199-20.399,56.799-38.399
		c11.701-18.101,17.5-38.3,17.5-60.601c0-13.8-2.199-26.3-6.699-37.5c-4.4-11.199-9.9-21.199-16.301-30.1
		c-6.398-8.9-13.5-16.8-21.199-23.7c-7.699-6.899-14.801-13-21.199-18.2c-6.4-5.3-11.801-9.899-16.301-13.8
		c-4.4-3.899-6.699-7.2-6.699-9.899C660.5,388.95,661.4,386.65,663.4,385.049z"/>
</g>
<g>
</g>
<g>
</g>
<g>
</g>
<g>
</g>
<g>
</g>
<g>
</g>
<g>
</g>
<g>
</g>
<g>
</g>
<g>
</g>
<g>
</g>
<g>
</g>
<g>
</g>
<g>
</g>
<g>
</g>
</svg>
