<?xml version="1.0" encoding="iso-8859-1"?>
<!-- Generator: Adobe Illustrator 16.0.0, SVG Export Plug-In . SVG Version: 6.00 Build 0)  -->
<!DOCTYPE svg PUBLIC "-//W3C//DTD SVG 1.1//EN" "http://www.w3.org/Graphics/SVG/1.1/DTD/svg11.dtd">
<svg version="1.1" id="Capa_1" xmlns="http://www.w3.org/2000/svg" xmlns:xlink="http://www.w3.org/1999/xlink" x="0px" y="0px"
	 width="850px" height="850px" viewBox="0 0 850 850" style="enable-background:new 0 0 850 850;" xml:space="preserve">
<g>
	<g>
		<circle cx="385.4" cy="649.65" r="79.8"/>
		<path d="M385.4,342.45c-44.6,0-87.899,8.9-128.6,26.6c-39.3,17-74.3,41.3-104.1,72.2l100.7,97.3c34.9-36.1,81.8-56,132-56
			c42.2,0,82.299,14.2,114.7,40.2v-159.3C463.5,349.55,425,342.45,385.4,342.45z"/>
		<path d="M98.7,379.35c76.6-76.6,178.4-118.7,286.7-118.7c83,0,162.2,24.8,229.2,70.9c22-8.7,40-19.5,53-31.9l27.6-26.3
			c0,0,36.602,34.1,41.9,37.8l32.301-32.6c-50-49.5-108.1-88.4-172.701-115.6c-66.898-28.1-138-42.4-211.099-42.4
			c-73.6,0-145,14.4-212.3,42.9c-65,27.5-123.3,66.8-173.3,116.9L98.7,379.35z"/>
		<path d="M695.1,328.65c-13.1,12.5-28.6,22.6-44.699,30.6c-37.5,18.899-78,26.8-97.9,29.7c-7.801,1.199-12.5,1.6-12.5,1.6v120.8
			v21.101c0,100.3,155,172.399,155,172.399s155-72,155-172.399v-142c0,0-84.6-7.301-141.6-50.601
			C703.801,336.45,699.301,332.65,695.1,328.65z"/>
	</g>
</g>
<g>
</g>
<g>
</g>
<g>
</g>
<g>
</g>
<g>
</g>
<g>
</g>
<g>
</g>
<g>
</g>
<g>
</g>
<g>
</g>
<g>
</g>
<g>
</g>
<g>
</g>
<g>
</g>
<g>
</g>
</svg>
