<?xml version="1.0" encoding="iso-8859-1"?>
<!-- Generator: Adobe Illustrator 16.0.0, SVG Export Plug-In . SVG Version: 6.00 Build 0)  -->
<!DOCTYPE svg PUBLIC "-//W3C//DTD SVG 1.1//EN" "http://www.w3.org/Graphics/SVG/1.1/DTD/svg11.dtd">
<svg version="1.1" id="Capa_1" xmlns="http://www.w3.org/2000/svg" xmlns:xlink="http://www.w3.org/1999/xlink" x="0px" y="0px"
	 width="881.1px" height="881.1px" viewBox="0 0 881.1 881.1" style="enable-background:new 0 0 881.1 881.1;" xml:space="preserve"
	>
<g>
	<path d="M661,366.7c0-27-21.5-48.9-48.5-48.9S564,339.7,564,366.7v243.2H0v265h773v-265H661V366.7z M139.4,784.7
		c-23,0-41.7-18.7-41.7-41.7s18.7-41.699,41.7-41.699S181.1,720,181.1,743C181,766,162.4,784.7,139.4,784.7z M671,700.9v84H267v-84
		H671z"/>
	<path d="M612.3,262.9c33.4,0,64.8,13,88.5,36.6l72.5-72.5c-43-43-100.1-66.7-160.899-66.7c-31.4,0-61.801,6.3-90.4,18.7
		c-27.6,12-52.3,29-73.2,50.8l73.7,71.2C546.1,276.5,578.1,262.9,612.3,262.9z"/>
	<path d="M612.3,6.2c-51.5,0-101.6,10.1-148.7,30C418.1,55.4,377.3,83,342.2,118l72.5,72.5c52.8-52.8,122.899-81.8,197.6-81.8
		c74.101,0,144,28.7,196.7,80.9l72.1-72.8C846.1,82.1,805.4,54.9,760.2,35.9C713.3,16.1,663.5,6.2,612.3,6.2z"/>
</g>
<g>
</g>
<g>
</g>
<g>
</g>
<g>
</g>
<g>
</g>
<g>
</g>
<g>
</g>
<g>
</g>
<g>
</g>
<g>
</g>
<g>
</g>
<g>
</g>
<g>
</g>
<g>
</g>
<g>
</g>
</svg>
