<?xml version="1.0" encoding="iso-8859-1"?>
<!-- Generator: Adobe Illustrator 16.0.0, SVG Export Plug-In . SVG Version: 6.00 Build 0)  -->
<!DOCTYPE svg PUBLIC "-//W3C//DTD SVG 1.1//EN" "http://www.w3.org/Graphics/SVG/1.1/DTD/svg11.dtd">
<svg version="1.1" id="Capa_1" xmlns="http://www.w3.org/2000/svg" xmlns:xlink="http://www.w3.org/1999/xlink" x="0px" y="0px"
	 width="922.9px" height="922.9px" viewBox="0 0 922.9 922.9" style="enable-background:new 0 0 922.9 922.9;" xml:space="preserve"
	>
<g>
	<g>
		<path d="M0,469.4L93.5,562.6l56.3-55.6l0.1,406.4h311.2h0.1h312.101V507l56.199,55.6l93.4-93.199L461.5,9.5L0,469.4z
			 M462.1,720.699c-25.6,0-46.5-20.898-46.5-46.5c0-25.6,20.899-46.5,46.5-46.5c25.6,0,46.5,20.9,46.5,46.5
			C508.6,699.801,487.801,720.699,462.1,720.699z M535.5,616.301c-19.6-19.602-45.699-30.4-73.4-30.4
			c-28.4,0-54.9,11.199-74.6,31.699l-61.1-59.1c35.9-37.1,84.1-57.6,135.799-57.6c50.4,0,97.801,19.6,133.5,55.299L535.5,616.301z
			 M685.1,462.6L625.301,523c-43.701-43.301-101.602-67.1-163.102-67.1C400.3,455.9,342.1,480,298.3,523.801L238.2,463.699
			c29.1-29.099,63-51.899,100.7-67.899c39.1-16.5,80.6-24.9,123.299-24.9C546.199,370.9,625.4,403.5,685.1,462.6z"/>
	</g>
</g>
<g>
</g>
<g>
</g>
<g>
</g>
<g>
</g>
<g>
</g>
<g>
</g>
<g>
</g>
<g>
</g>
<g>
</g>
<g>
</g>
<g>
</g>
<g>
</g>
<g>
</g>
<g>
</g>
<g>
</g>
</svg>
